<svg width="20" height="20" viewBox="0 0 20 20" fill="none" xmlns="http://www.w3.org/2000/svg">
<path d="M10 0C4.4775 0 0 4.4775 0 10C0 15.5225 4.4775 20 10 20C15.5225 20 20 15.5225 20 10C20 4.4775 15.5225 0 10 0ZM11.1742 1.75C13.362 2.06315 15.3361 3.23211 16.6625 5H9.19333L11.1742 1.75ZM11.8267 6.66583L13.8542 10.0033L11.8242 13.3333H8.13667L6.205 9.90167L8.17833 6.665L11.8267 6.66583ZM9.25333 1.70167L5.26833 8.23833L3.40083 4.92C4.10151 4.00879 4.98319 3.25246 5.9904 2.69859C6.99761 2.14471 8.10856 1.80529 9.25333 1.70167ZM2.36333 13.3333C1.90283 12.2824 1.6656 11.1474 1.66667 10C1.66667 8.77333 1.93333 7.60833 2.41083 6.55833L6.22417 13.3333H2.36333ZM8.82583 18.25C6.63809 17.9365 4.66417 16.7676 3.3375 15H10.8075L8.82583 18.25ZM10.7475 18.2992L14.8275 11.6067L16.7858 14.8308C16.0889 15.8101 15.1885 16.6271 14.1462 17.2258C13.104 17.8245 11.9445 18.1906 10.7475 18.2992ZM13.7758 6.66583H17.6367C18.0972 7.71702 18.3344 8.85237 18.3333 10C18.3344 11.0803 18.1243 12.1503 17.715 13.15L13.7767 6.66667L13.7758 6.66583Z" fill="white"/>
</svg>
