<svg width="22" height="22" viewBox="0 0 22 22" fill="none" xmlns="http://www.w3.org/2000/svg">
<path d="M9.47458 12.866H4.38983C2.51767 12.866 1 11.3483 1 9.47614V4.39139C1 2.51923 2.51767 1.00156 4.38983 1.00156H9.47458C11.3467 1.00156 12.8644 2.51923 12.8644 4.39139V9.47614C12.8644 11.3483 11.3467 12.866 9.47458 12.866Z" stroke="white" stroke-width="2" stroke-miterlimit="10" stroke-linecap="round" stroke-linejoin="round"/>
<path d="M15.9154 9.13718H17.6103C19.4825 9.13718 21.0002 10.6548 21.0002 12.527V17.6118C21.0002 19.4839 19.4825 21.0016 17.6103 21.0016H12.5256C10.6534 21.0016 9.13574 19.4839 9.13574 17.6118V15.9168" stroke="white" stroke-width="2" stroke-miterlimit="10" stroke-linecap="round" stroke-linejoin="round"/>
<path d="M12.6948 17.7812L15.2372 12.6965L17.7796 17.7812" stroke="white" stroke-width="1.5" stroke-miterlimit="10" stroke-linecap="round" stroke-linejoin="round"/>
<path d="M4.38965 4.39136H9.47439" stroke="white" stroke-width="1.5" stroke-miterlimit="10" stroke-linecap="round" stroke-linejoin="round"/>
<path d="M5.2373 9.4762L5.59519 9.29726C7.45336 8.36819 8.62714 6.46895 8.62714 4.39145" stroke="white" stroke-width="1.5" stroke-miterlimit="10" stroke-linecap="round" stroke-linejoin="round"/>
<path d="M8.62714 9.4762L8.26925 9.29726C6.41108 8.36819 5.2373 6.46895 5.2373 4.39145" stroke="white" stroke-width="1.5" stroke-miterlimit="10" stroke-linecap="round" stroke-linejoin="round"/>
<path d="M13.5425 16.0863H16.9323" stroke="white" stroke-width="1.5" stroke-miterlimit="10" stroke-linecap="round" stroke-linejoin="round"/>
</svg>
