<svg width="10" height="6" viewBox="0 0 10 6" fill="none" xmlns="http://www.w3.org/2000/svg">
<path d="M9.99999 0.859831C10.0008 0.717998 9.95938 0.579133 9.88097 0.460939C9.80257 0.342745 9.69074 0.250578 9.55975 0.196189C9.42875 0.141801 9.28453 0.127654 9.14547 0.155552C9.0064 0.183451 8.8788 0.252131 8.77892 0.352837L5.00145 4.13744L1.22399 0.352837C1.08953 0.218373 0.907158 0.142833 0.716998 0.142833C0.62284 0.142833 0.529605 0.161378 0.442615 0.197411C0.355625 0.233443 0.276583 0.286257 0.210004 0.352836C0.143424 0.419416 0.0906109 0.498457 0.0545784 0.585447C0.0185459 0.672437 -2.7279e-08 0.765673 -3.13948e-08 0.85983C-3.97069e-08 1.04999 0.0755406 1.23236 0.210004 1.36682L4.49446 5.65128C4.62825 5.78428 4.80924 5.85893 4.99788 5.85893C5.18653 5.85893 5.36752 5.78428 5.50131 5.65128L9.78577 1.36682C9.85324 1.30069 9.90691 1.22182 9.94369 1.1348C9.98046 1.04777 9.9996 0.954308 9.99999 0.859831Z" fill="white"/>
</svg>
