<svg width="14" height="16" viewBox="0 0 14 16" fill="none" xmlns="http://www.w3.org/2000/svg">
<path d="M5.08001 11.1372C4.98699 10.9533 3.55314 8.13375 2.08607 7.77905C1.5915 7.66991 1.19527 7.76625 1.19527 7.76625C0.650682 7.9217 0.253762 8.3857 0.0989006 8.79076C-0.211166 9.69265 0.265583 10.3803 0.731368 11.0247C1.66294 12.3131 2.5671 13.5855 3.49867 14.8741C3.81661 15.3019 4.13987 15.7513 4.65088 15.9254C5.31555 16.154 6.07496 15.8314 6.52704 15.3082C7.00122 14.7795 7.2282 14.1043 7.46067 13.4508L7.87574 12.3167C8.35146 11.0528 8.87686 9.80011 9.4295 8.56339C9.98214 7.32667 10.5624 6.10662 11.1921 4.89719C11.8218 3.68775 12.4568 2.50021 13.1633 1.31806C13.3454 1.02114 13.5056 0.729598 13.6877 0.432671C13.7209 0.378776 13.947 0.0710704 13.9087 0.0116176C13.8703 -0.0480036 13.5674 0.14046 13.5015 0.15646C12.9401 0.430987 12.4003 0.791914 11.9157 1.18552C10.9295 1.99933 10.1245 2.97584 9.35241 3.99041C7.72361 6.24855 6.29427 8.63953 5.08001 11.1372Z" fill="white"/>
</svg>
