<svg width="12" height="12" viewBox="0 0 12 12" fill="none" xmlns="http://www.w3.org/2000/svg">
<path d="M7.09951 5.99986L11.7723 1.32705C12.0763 1.0231 12.0763 0.531636 11.7723 0.22772C11.4683 -0.0762323 10.9768 -0.0762323 10.6729 0.22772L6.00007 4.9005L1.3274 0.22772C1.02331 -0.0762323 0.532026 -0.0762323 0.228074 0.22772C-0.0760246 0.531673 -0.0760246 1.0231 0.228074 1.32705L4.9007 5.99986L0.22811 10.6726C-0.0759881 10.9766 -0.0759881 11.4681 0.22811 11.772C0.300209 11.8443 0.385885 11.9016 0.480214 11.9407C0.574543 11.9798 0.675667 11.9999 0.777776 11.9998C0.976766 11.9998 1.17583 11.9236 1.32744 11.772L6.00007 7.0992L10.6729 11.772C10.745 11.8443 10.8307 11.9016 10.925 11.9407C11.0194 11.9798 11.1205 11.9999 11.2226 11.9998C11.4216 11.9998 11.6206 11.9236 11.7723 11.772C12.0763 11.468 12.0763 10.9766 11.7723 10.6726L7.09951 5.99986Z" fill="white"/>
</svg>
