<svg width="11" height="15" viewBox="0 0 11 15" fill="none" xmlns="http://www.w3.org/2000/svg">
<path d="M4.77273 14.1663C4.6471 14.167 4.52257 14.143 4.40627 14.0957C4.28997 14.0483 4.18419 13.9785 4.095 13.8902L0.276818 10.0818C0.144368 9.94792 0.0546441 9.7779 0.0189688 9.5932C-0.0167065 9.40851 0.00326492 9.21741 0.0763635 9.04402C0.147974 8.87015 0.269581 8.72131 0.425859 8.61626C0.582138 8.51121 0.766094 8.45465 0.954545 8.45372H10.0455C10.2986 8.45372 10.5414 8.55403 10.7204 8.73258C10.8994 8.91113 11 9.1533 11 9.40582C11 9.65833 10.8994 9.9005 10.7204 10.0791C10.5414 10.2576 10.2986 10.3579 10.0455 10.3579H3.255L5.45045 12.5382C5.53992 12.6267 5.61094 12.732 5.6594 12.8481C5.70786 12.9641 5.73281 13.0885 5.73281 13.2142C5.73281 13.3399 5.70786 13.4644 5.6594 13.5804C5.61094 13.6964 5.53992 13.8017 5.45045 13.8902C5.36126 13.9785 5.25548 14.0483 5.13918 14.0957C5.02288 14.143 4.89835 14.167 4.77273 14.1663ZM10.0455 6.54951H0.954545C0.701384 6.54951 0.458592 6.4492 0.27958 6.27065C0.100568 6.09209 0 5.84992 0 5.59741C0 5.3449 0.100568 5.10273 0.27958 4.92417C0.458592 4.74562 0.701384 4.64531 0.954545 4.64531H7.745L5.54955 2.465C5.3698 2.28571 5.26882 2.04255 5.26882 1.78901C5.26882 1.53546 5.3698 1.2923 5.54955 1.11301C5.72929 0.933729 5.97308 0.833008 6.22727 0.833008C6.48147 0.833008 6.72526 0.933729 6.905 1.11301L10.7232 4.92142C10.8556 5.05531 10.9454 5.22533 10.981 5.41002C11.0167 5.59472 10.9967 5.78582 10.9236 5.95921C10.852 6.13308 10.7304 6.28192 10.5741 6.38697C10.4179 6.49202 10.2339 6.54857 10.0455 6.54951Z" fill="white"/>
</svg>
