<svg width="20" height="20" viewBox="0 0 20 20" fill="none" xmlns="http://www.w3.org/2000/svg">
<g clip-path="url(#clip0_1084_1879)">
<path d="M19.0234 9.02344C18.4844 9.02344 18.0469 9.46094 18.0469 10C18.0469 14.4375 14.4375 18.0469 10 18.0469C5.5625 18.0469 1.95312 14.4375 1.95312 10C1.95312 9.46094 1.51562 9.02344 0.976562 9.02344C0.4375 9.02344 0 9.46094 0 10C0 12.6719 1.03906 15.1836 2.92969 17.0703C4.82031 18.9609 7.32812 20 10 20C12.6719 20 15.1836 18.9609 17.0703 17.0703C18.9609 15.1797 20 12.6719 20 10C20 9.46094 19.5625 9.02344 19.0234 9.02344Z" fill="white"/>
<path d="M8.66016 13.4219C9.01953 13.7812 9.49609 13.9766 10 13.9766C10.5078 13.9766 10.9844 13.7773 11.3398 13.4219L13.7969 10.9648C14.1797 10.582 14.1797 9.96484 13.7969 9.58203C13.4141 9.19922 12.7969 9.19922 12.4141 9.58203L10.9766 11.0234V0.976562C10.9766 0.4375 10.5391 0 10 0C9.46094 0 9.02344 0.4375 9.02344 0.976562V11.0234L7.58203 9.58203C7.19922 9.19922 6.58203 9.19922 6.19922 9.58203C5.81641 9.96484 5.81641 10.582 6.19922 10.9648L8.66016 13.4219Z" fill="white"/>
</g>
<defs>
<clipPath id="clip0_1084_1879">
<rect width="20" height="20" fill="white"/>
</clipPath>
</defs>
</svg>
