<svg width="21" height="20" viewBox="0 0 21 20" fill="none" xmlns="http://www.w3.org/2000/svg">
<path d="M11.4084 4.51638L2.83342 13.0914C2.51744 13.4079 2.31774 13.822 2.26675 14.2664L1.92508 17.2664C1.90281 17.4773 1.92529 17.6906 1.99105 17.8923C2.05682 18.094 2.16438 18.2795 2.30673 18.4368C2.44908 18.5941 2.623 18.7196 2.81714 18.8051C3.01129 18.8906 3.22128 18.9342 3.43342 18.933H3.60842L6.60842 18.5914C7.05101 18.5402 7.46418 18.3438 7.78342 18.033L16.3584 9.44971L11.4084 4.51638ZM19.2584 3.79138L17.0834 1.61638C16.9015 1.4337 16.6852 1.28876 16.4471 1.18985C16.209 1.09095 15.9537 1.04004 15.6959 1.04004C15.4381 1.04004 15.1828 1.09095 14.9447 1.18985C14.7066 1.28876 14.4904 1.4337 14.3084 1.61638L12.2918 3.63304L17.2418 8.58304L19.2584 6.56638C19.4411 6.38443 19.586 6.1682 19.6849 5.9301C19.7838 5.69199 19.8348 5.4367 19.8348 5.17888C19.8348 4.92105 19.7838 4.66576 19.6849 4.42766C19.586 4.18955 19.4411 3.97332 19.2584 3.79138Z" fill="white"/>
</svg>
