<svg width="20" height="22" viewBox="0 0 20 22" fill="none" xmlns="http://www.w3.org/2000/svg">
<path d="M4.93646 14.5593V19.3051H3.28391C2.35301 19.3051 1.59632 18.5543 1.58903 17.6234L1.57576 16.269C1.56839 15.3277 2.32937 14.5608 3.27064 14.5608H5.39095C6.15969 14.5608 6.89694 14.2554 7.44054 13.7118C7.98413 13.1683 8.72138 12.8629 9.49012 12.8629H16.4251C17.3612 12.8629 18.12 13.6217 18.12 14.5578C18.12 15.4939 17.3612 16.2527 16.4251 16.2527L13.4111 16.2542V18.4576C13.4111 19.8617 12.2728 21 10.8687 21H9.52478C9.11131 21 8.70263 20.9114 8.3263 20.7401M1.25 5.23731V7.77969C1.25 9.65186 2.76768 11.1695 4.63984 11.1695C4.63984 10.2335 5.3987 9.47461 6.33477 9.47461H13.9619C16.3021 9.47461 18.1992 7.57753 18.1992 5.23731C18.1992 2.89708 16.3021 1 13.9619 1H5.48731C3.14708 1 1.25 2.89708 1.25 5.23731Z" stroke="white" stroke-width="2" stroke-miterlimit="10" stroke-linecap="round" stroke-linejoin="round"/>
</svg>
