<svg width="14" height="14" viewBox="0 0 14 14" fill="none" xmlns="http://www.w3.org/2000/svg">
<path d="M4.14331 0.366933C3.47858 0.211022 2.78679 0.211022 2.12206 0.366933C1.69514 0.467067 1.30466 0.684406 0.994595 0.994473C0.684528 1.30454 0.467189 1.69502 0.367055 2.12193C0.211144 2.78666 0.211144 3.47845 0.367055 4.14318C0.467189 4.5701 0.684528 4.96058 0.994595 5.27064C1.30466 5.58071 1.69514 5.79805 2.12206 5.89818C2.78678 6.05412 3.47858 6.05412 4.14331 5.89818C4.57022 5.79805 4.9607 5.58071 5.27077 5.27064C5.58083 4.96058 5.79817 4.5701 5.89831 4.14318C6.05424 3.47846 6.05424 2.78666 5.89831 2.12193C5.79817 1.69502 5.58083 1.30454 5.27077 0.994473C4.9607 0.684406 4.57022 0.467067 4.14331 0.366933ZM4.14331 8.10168C3.47858 7.94574 2.78678 7.94574 2.12206 8.10168C1.69514 8.20182 1.30466 8.41916 0.994595 8.72922C0.684528 9.03929 0.467189 9.42977 0.367055 9.85668C0.211144 10.5214 0.211144 11.2132 0.367055 11.8779C0.467189 12.3048 0.684528 12.6953 0.994595 13.0054C1.30466 13.3155 1.69514 13.5328 2.12206 13.6329C2.78679 13.7888 3.47857 13.7888 4.14331 13.6329C4.57022 13.5328 4.9607 13.3155 5.27077 13.0054C5.58083 12.6953 5.79817 12.3048 5.89831 11.8779C6.05424 11.2132 6.05424 10.5214 5.89831 9.85668C5.79817 9.42977 5.58083 9.03929 5.27077 8.72922C4.9607 8.41916 4.57022 8.20182 4.14331 8.10168ZM11.8781 0.366933C11.2133 0.211022 10.5215 0.211022 9.85681 0.366933C9.42989 0.467067 9.03941 0.684406 8.72935 0.994473C8.41928 1.30454 8.20194 1.69502 8.10181 2.12193C7.94587 2.78666 7.94587 3.47846 8.10181 4.14318C8.20194 4.5701 8.41928 4.96058 8.72935 5.27064C9.03941 5.58071 9.42989 5.79805 9.85681 5.89818C10.5215 6.05412 11.2133 6.05412 11.8781 5.89818C12.305 5.79805 12.6954 5.58071 13.0055 5.27064C13.3156 4.96058 13.5329 4.5701 13.6331 4.14318C13.7889 3.47845 13.7889 2.78667 13.6331 2.12193C13.5329 1.69502 13.3156 1.30454 13.0055 0.994473C12.6954 0.684406 12.305 0.467067 11.8781 0.366933ZM11.8781 8.10168C11.2133 7.94574 10.5215 7.94574 9.85681 8.10168C9.42989 8.20182 9.03941 8.41916 8.72935 8.72922C8.41928 9.03929 8.20194 9.42977 8.10181 9.85668C7.94587 10.5214 7.94587 11.2132 8.10181 11.8779C8.20194 12.3048 8.41928 12.6953 8.72935 13.0054C9.03941 13.3155 9.42989 13.5328 9.85681 13.6329C10.5215 13.7888 11.2133 13.7888 11.8781 13.6329C12.305 13.5328 12.6954 13.3155 13.0055 13.0054C13.3156 12.6953 13.5329 12.3048 13.6331 11.8779C13.7889 11.2132 13.7889 10.5214 13.6331 9.85668C13.5329 9.42977 13.3156 9.03929 13.0055 8.72922C12.6954 8.41916 12.305 8.20182 11.8781 8.10168Z" fill="white"/>
<path d="M4.14331 0.366933C3.47858 0.211022 2.78679 0.211022 2.12206 0.366933C1.69514 0.467067 1.30466 0.684406 0.994595 0.994473C0.684528 1.30454 0.467189 1.69502 0.367055 2.12193C0.211144 2.78666 0.211144 3.47845 0.367055 4.14318C0.467189 4.5701 0.684528 4.96058 0.994595 5.27064C1.30466 5.58071 1.69514 5.79805 2.12206 5.89818C2.78678 6.05412 3.47858 6.05412 4.14331 5.89818C4.57022 5.79805 4.9607 5.58071 5.27077 5.27064C5.58083 4.96058 5.79817 4.5701 5.89831 4.14318C6.05424 3.47846 6.05424 2.78666 5.89831 2.12193C5.79817 1.69502 5.58083 1.30454 5.27077 0.994473C4.9607 0.684406 4.57022 0.467067 4.14331 0.366933ZM4.14331 8.10168C3.47858 7.94574 2.78678 7.94574 2.12206 8.10168C1.69514 8.20182 1.30466 8.41916 0.994595 8.72922C0.684528 9.03929 0.467189 9.42977 0.367055 9.85668C0.211144 10.5214 0.211144 11.2132 0.367055 11.8779C0.467189 12.3048 0.684528 12.6953 0.994595 13.0054C1.30466 13.3155 1.69514 13.5328 2.12206 13.6329C2.78679 13.7888 3.47857 13.7888 4.14331 13.6329C4.57022 13.5328 4.9607 13.3155 5.27077 13.0054C5.58083 12.6953 5.79817 12.3048 5.89831 11.8779C6.05424 11.2132 6.05424 10.5214 5.89831 9.85668C5.79817 9.42977 5.58083 9.03929 5.27077 8.72922C4.9607 8.41916 4.57022 8.20182 4.14331 8.10168ZM11.8781 0.366933C11.2133 0.211022 10.5215 0.211022 9.85681 0.366933C9.42989 0.467067 9.03941 0.684406 8.72935 0.994473C8.41928 1.30454 8.20194 1.69502 8.10181 2.12193C7.94587 2.78666 7.94587 3.47846 8.10181 4.14318C8.20194 4.5701 8.41928 4.96058 8.72935 5.27064C9.03941 5.58071 9.42989 5.79805 9.85681 5.89818C10.5215 6.05412 11.2133 6.05412 11.8781 5.89818C12.305 5.79805 12.6954 5.58071 13.0055 5.27064C13.3156 4.96058 13.5329 4.5701 13.6331 4.14318C13.7889 3.47845 13.7889 2.78667 13.6331 2.12193C13.5329 1.69502 13.3156 1.30454 13.0055 0.994473C12.6954 0.684406 12.305 0.467067 11.8781 0.366933ZM11.8781 8.10168C11.2133 7.94574 10.5215 7.94574 9.85681 8.10168C9.42989 8.20182 9.03941 8.41916 8.72935 8.72922C8.41928 9.03929 8.20194 9.42977 8.10181 9.85668C7.94587 10.5214 7.94587 11.2132 8.10181 11.8779C8.20194 12.3048 8.41928 12.6953 8.72935 13.0054C9.03941 13.3155 9.42989 13.5328 9.85681 13.6329C10.5215 13.7888 11.2133 13.7888 11.8781 13.6329C12.305 13.5328 12.6954 13.3155 13.0055 13.0054C13.3156 12.6953 13.5329 12.3048 13.6331 11.8779C13.7889 11.2132 13.7889 10.5214 13.6331 9.85668C13.5329 9.42977 13.3156 9.03929 13.0055 8.72922C12.6954 8.41916 12.305 8.20182 11.8781 8.10168Z" fill="url(#paint0_linear_1078_1731)"/>
<defs>
<linearGradient id="paint0_linear_1078_1731" x1="7.00005" y1="0.25" x2="7.00005" y2="13.7498" gradientUnits="userSpaceOnUse">
<stop stop-color="#00B488"/>
<stop offset="1" stop-color="#004E3B"/>
</linearGradient>
</defs>
</svg>
