<svg width="16" height="16" viewBox="0 0 16 16" fill="none" xmlns="http://www.w3.org/2000/svg">
<path fill-rule="evenodd" clip-rule="evenodd" d="M14.7832 4.46246L10.4744 0.900079C9.78096 0.318662 8.90493 0 8 0C7.09507 0 6.21904 0.318662 5.5256 0.900079L1.2168 4.46246C0.4408 5.10486 0 6.07765 0 7.09285V12.6488C0 14.4528 1.3872 16 3.2 16H4.8C5.22435 16 5.63131 15.8314 5.93137 15.5314C6.23143 15.2313 6.4 14.8244 6.4 14.4V11.7984C6.4 10.784 7.1616 10.0464 8 10.0464C8.8384 10.0464 9.6 10.784 9.6 11.7984V14.4C9.6 14.8244 9.76857 15.2313 10.0686 15.5314C10.3687 15.8314 10.7757 16 11.2 16H12.8C14.6128 16 16 14.4528 16 12.648V7.09285C16 6.07765 15.56 5.10486 14.7832 4.46246Z" fill="white"/>
</svg>
