<svg width="8" height="18" viewBox="0 0 8 18" fill="none" xmlns="http://www.w3.org/2000/svg">
<path d="M7.50626 15.3395C7.16876 15.4707 6.1 15.7832 5.6125 15.5051C5.54524 15.466 5.48848 15.4112 5.44711 15.3453C5.40574 15.2794 5.38099 15.2045 5.37501 15.127C5.22188 14.152 5.95 11.8988 6.34375 10.6895C6.475 10.2863 6.56875 9.99258 6.60625 9.81445C6.89063 8.49883 6.75 7.49258 6.1875 6.82383C5.51063 6.01914 4.31 5.86258 3.325 6.0082C2.32342 6.1417 1.34465 6.41083 0.41563 6.8082C0.372475 6.8291 0.334766 6.85973 0.30548 6.89769C0.276195 6.93566 0.256133 6.97991 0.246879 7.02695L0.0437545 7.99883C0.0327695 8.05349 0.0365322 8.11008 0.0546556 8.16281C0.0727791 8.21553 0.10461 8.26248 0.14688 8.29883C0.189676 8.33439 0.240954 8.35826 0.295719 8.36812C0.350484 8.37798 0.406868 8.37349 0.459379 8.35508C0.831254 8.21758 1.99375 7.9082 2.40938 8.28945C2.64375 8.50508 2.57813 8.96133 2.48438 9.30195C2.3875 9.6582 2.27188 10.0426 2.15313 10.4457C1.38438 13.0613 0.50938 16.027 1.89688 16.952C2.55334 17.4532 3.35237 17.7323 4.17813 17.7488C4.99063 17.7488 5.99375 17.4926 7.4375 16.9082C7.48101 16.8913 7.52017 16.8648 7.55208 16.8307C7.58399 16.7967 7.60784 16.7558 7.62188 16.7113L7.91876 15.7207C7.93558 15.6642 7.9363 15.6042 7.92084 15.5473C7.90538 15.4904 7.87435 15.439 7.83125 15.3988C7.78815 15.3594 7.73479 15.3329 7.6773 15.3223C7.61981 15.3118 7.56053 15.3178 7.50626 15.3395ZM5.7 0.251953C5.25297 0.252262 4.81605 0.385087 4.44448 0.633641C4.07291 0.882194 3.78337 1.23532 3.61243 1.64839C3.4415 2.06146 3.39686 2.51593 3.48415 2.95436C3.57144 3.39279 3.78674 3.79551 4.10284 4.11161C4.41895 4.42772 4.82166 4.64302 5.2601 4.73031C5.69853 4.8176 6.153 4.77295 6.56607 4.60202C6.97914 4.43109 7.33226 4.14154 7.58082 3.76997C7.82937 3.3984 7.9622 2.96149 7.9625 2.51445C7.96234 1.91445 7.72392 1.33907 7.29965 0.914807C6.87539 0.490542 6.30001 0.252119 5.7 0.251953Z" fill="white"/>
</svg>
