<svg width="24" height="24" viewBox="0 0 24 24" fill="none" xmlns="http://www.w3.org/2000/svg">
<g clip-path="url(#clip0_1086_546)">
<path d="M12 24C5.3736 24 0 18.6264 0 12C0 5.3736 5.3736 0 12 0C18.6264 0 24 5.3736 24 12C24 18.6264 18.6264 24 12 24Z" fill="url(#paint0_linear_1086_546)"/>
<path d="M12 5.28459C14.1864 5.28459 14.4456 5.29179 15.3096 5.33259C16.1088 5.36859 16.5432 5.50299 16.8312 5.61579C17.2128 5.76459 17.4864 5.94219 17.772 6.22779C18.0576 6.51339 18.2352 6.78699 18.384 7.16859C18.4968 7.45659 18.6288 7.89099 18.6672 8.69019C18.7056 9.55419 18.7152 9.81339 18.7152 11.9998C18.7152 14.1862 18.708 14.4454 18.6672 15.3094C18.6312 16.1086 18.4968 16.543 18.384 16.831C18.2352 17.2126 18.0576 17.4862 17.772 17.7718C17.4864 18.0574 17.2128 18.235 16.8312 18.3838C16.5432 18.4966 16.1088 18.6286 15.3096 18.667C14.4456 18.7054 14.1864 18.715 12 18.715C9.8136 18.715 9.5544 18.7078 8.6904 18.667C7.8912 18.631 7.4568 18.4966 7.1688 18.3838C6.7872 18.235 6.5136 18.0574 6.228 17.7718C5.9424 17.4862 5.7648 17.2126 5.616 16.831C5.5032 16.543 5.3712 16.1086 5.3328 15.3094C5.2944 14.4454 5.2848 14.1862 5.2848 11.9998C5.2848 9.81339 5.292 9.55419 5.3328 8.69019C5.3688 7.89099 5.5032 7.45659 5.616 7.16859C5.7648 6.78699 5.9424 6.51339 6.228 6.22779C6.5136 5.94219 6.7872 5.76459 7.1688 5.61579C7.4568 5.50299 7.8912 5.37099 8.6904 5.33259C9.5544 5.29179 9.8136 5.28459 12 5.28459ZM12 3.80859C9.7752 3.80859 9.4968 3.81819 8.6232 3.85899C7.752 3.89979 7.1568 4.03659 6.6336 4.24059C6.096 4.44699 5.6376 4.72779 5.184 5.18379C4.728 5.63979 4.4496 6.09579 4.2384 6.63579C4.0368 7.15659 3.8976 7.75179 3.8568 8.62539C3.816 9.49899 3.8064 9.77739 3.8064 12.0022C3.8064 14.227 3.816 14.5054 3.8568 15.379C3.8976 16.2502 4.0344 16.8454 4.2384 17.3686C4.4472 17.9038 4.728 18.3622 5.184 18.8158C5.64 19.2718 6.096 19.5502 6.636 19.7614C7.1568 19.963 7.752 20.1022 8.6256 20.143C9.4992 20.1838 9.7776 20.1934 12.0024 20.1934C14.2272 20.1934 14.5056 20.1838 15.3792 20.143C16.2504 20.1022 16.8456 19.9654 17.3688 19.7614C17.904 19.5526 18.3624 19.2718 18.816 18.8158C19.272 18.3598 19.5504 17.9038 19.7616 17.3638C19.9632 16.843 20.1024 16.2478 20.1432 15.3742C20.184 14.5006 20.1936 14.2222 20.1936 11.9974C20.1936 9.77259 20.184 9.49419 20.1432 8.62059C20.1024 7.74939 19.9656 7.15419 19.7616 6.63099C19.5528 6.09579 19.272 5.63739 18.816 5.18379C18.36 4.72779 17.904 4.44939 17.364 4.23819C16.8432 4.03659 16.248 3.89739 15.3744 3.85659C14.5032 3.81819 14.2248 3.80859 12 3.80859Z" fill="white"/>
<path d="M11.9999 7.79297C9.67672 7.79297 7.79272 9.67697 7.79272 12.0002C7.79272 14.3234 9.67672 16.2074 11.9999 16.2074C14.3231 16.2074 16.2071 14.3234 16.2071 12.0002C16.2071 9.67697 14.3231 7.79297 11.9999 7.79297ZM11.9999 14.7314C10.4927 14.7314 9.26872 13.5098 9.26872 12.0002C9.26872 10.4906 10.4927 9.26897 11.9999 9.26897C13.5071 9.26897 14.7311 10.4906 14.7311 12.0002C14.7311 13.5098 13.5071 14.7314 11.9999 14.7314Z" fill="white"/>
<path d="M16.3729 8.61058C16.9164 8.61058 17.3569 8.17003 17.3569 7.62658C17.3569 7.08313 16.9164 6.64258 16.3729 6.64258C15.8295 6.64258 15.3889 7.08313 15.3889 7.62658C15.3889 8.17003 15.8295 8.61058 16.3729 8.61058Z" fill="white"/>
</g>
<defs>
<linearGradient id="paint0_linear_1086_546" x1="3.51473" y1="20.4853" x2="20.4853" y2="3.51473" gradientUnits="userSpaceOnUse">
<stop stop-color="#FFD521"/>
<stop offset="0.055" stop-color="#FFD020"/>
<stop offset="0.124" stop-color="#FEC01E"/>
<stop offset="0.2" stop-color="#FCA71B"/>
<stop offset="0.282" stop-color="#FA8316"/>
<stop offset="0.368" stop-color="#F85510"/>
<stop offset="0.456" stop-color="#F51E09"/>
<stop offset="0.5" stop-color="#F30005"/>
<stop offset="0.503" stop-color="#F20007"/>
<stop offset="0.597" stop-color="#E1003B"/>
<stop offset="0.688" stop-color="#D30067"/>
<stop offset="0.776" stop-color="#C70088"/>
<stop offset="0.859" stop-color="#BF00A0"/>
<stop offset="0.936" stop-color="#BB00AF"/>
<stop offset="1" stop-color="#B900B4"/>
</linearGradient>
<clipPath id="clip0_1086_546">
<rect width="24" height="24" fill="white"/>
</clipPath>
</defs>
</svg>
