<svg width="6" height="10" viewBox="0 0 6 10" fill="none" xmlns="http://www.w3.org/2000/svg">
<path d="M5.14054 9.99999C5.28237 10.0008 5.42123 9.95938 5.53943 9.88097C5.65762 9.80257 5.74979 9.69074 5.80418 9.55975C5.85857 9.42875 5.87271 9.28453 5.84481 9.14547C5.81692 9.0064 5.74824 8.8788 5.64753 8.77892L1.86293 5.00145L5.64753 1.22399C5.78199 1.08953 5.85753 0.907158 5.85753 0.716998C5.85753 0.62284 5.83899 0.529605 5.80296 0.442615C5.76692 0.355625 5.71411 0.276583 5.64753 0.210004C5.58095 0.143424 5.50191 0.090611 5.41492 0.0545784C5.32793 0.0185459 5.23469 0 5.14054 0C4.95038 0 4.768 0.0755407 4.63354 0.210004L0.349085 4.49446C0.216088 4.62825 0.141437 4.80924 0.141437 4.99788C0.141437 5.18653 0.216088 5.36752 0.349085 5.50131L4.63354 9.78577C4.69968 9.85324 4.77854 9.90691 4.86557 9.94369C4.9526 9.98046 5.04606 9.9996 5.14054 9.99999Z" fill="white"/>
</svg>
