<svg width="20" height="6" viewBox="0 0 20 6" fill="none" xmlns="http://www.w3.org/2000/svg">
<path d="M19.2677 1.23223C20.244 2.20854 20.244 3.79145 19.2677 4.76776C18.2914 5.74407 16.7085 5.74407 15.7322 4.76776C14.7559 3.79145 14.7559 2.20854 15.7322 1.23223C16.7085 0.255923 18.2914 0.255923 19.2677 1.23223ZM11.7678 1.23223C12.7441 2.20854 12.7441 3.79145 11.7678 4.76776C10.7914 5.74407 9.20853 5.74407 8.23223 4.76776C7.25592 3.79145 7.25592 2.20854 8.23223 1.23223C9.20853 0.255923 10.7914 0.255923 11.7678 1.23223ZM4.26776 1.23223C5.24407 2.20854 5.24407 3.79145 4.26776 4.76776C3.29145 5.74407 1.70854 5.74407 0.73223 4.76776C-0.244077 3.79145 -0.244077 2.20854 0.73223 1.23223C1.70854 0.255923 3.29145 0.255923 4.26776 1.23223Z" fill="white"/>
</svg>
