<svg width="20" height="24" viewBox="0 0 20 24" fill="none" xmlns="http://www.w3.org/2000/svg">
<path d="M18.2707 3.20791C15.8543 2.50457 13.5174 1.55264 11.2973 0.367397C10.9072 0.127189 10.4581 0 10 0C9.54189 0 9.09278 0.127189 8.7027 0.367397C6.4826 1.55255 4.14566 2.50447 1.72933 3.20791C1.21478 3.37061 0.767484 3.69699 0.455533 4.13736C0.143581 4.57773 -0.0159384 5.10796 0.00125784 5.64735L0.273591 13.8669C0.880975 17.9964 5.21189 21.4394 7.74046 23.1245C8.40919 23.5716 9.19555 23.8103 10 23.8103C10.8044 23.8103 11.5908 23.5716 12.2595 23.1245C14.7881 21.441 19.119 17.9964 19.7347 13.7728L19.9987 5.64735C20.0159 5.10796 19.8564 4.57773 19.5445 4.13736C19.2325 3.69699 18.7852 3.37061 18.2707 3.20791ZM18.0924 13.6259C17.5791 17.1249 13.6443 20.218 11.3435 21.7496C10.9458 22.016 10.4779 22.1581 9.99918 22.1581C9.52049 22.1581 9.0526 22.016 8.65484 21.7496C6.35569 20.218 2.42089 17.1249 1.91584 13.72L1.65176 5.59454C1.64568 5.41549 1.69814 5.23934 1.8012 5.0928C1.90425 4.94626 2.05228 4.83732 2.22283 4.78249C4.7686 4.03941 7.22925 3.03092 9.56427 1.77362C9.69437 1.69042 9.84557 1.64621 10 1.64621C10.1544 1.64621 10.3056 1.69042 10.4357 1.77362C12.7712 3.03114 15.2324 4.03963 17.7788 4.78249C17.9494 4.83732 18.0974 4.94626 18.2005 5.0928C18.3035 5.23934 18.356 5.41549 18.3499 5.59454L18.0924 13.6259ZM11.459 10.5114C11.4561 10.7434 11.3969 10.9713 11.2865 11.1754C11.1761 11.3795 11.0178 11.5537 10.8253 11.6832V13.9279C10.8253 14.1468 10.7383 14.3567 10.5835 14.5115C10.4288 14.6662 10.2189 14.7532 10 14.7532C9.78113 14.7532 9.57122 14.6662 9.41646 14.5115C9.26169 14.3567 9.17475 14.1468 9.17475 13.9279V11.6832C8.98219 11.5537 8.82393 11.3795 8.71353 11.1754C8.60314 10.9713 8.54392 10.7434 8.54096 10.5114C8.54096 10.1244 8.69468 9.75331 8.9683 9.47968C9.24192 9.20606 9.61304 9.05234 10 9.05234C10.387 9.05234 10.7581 9.20606 11.0317 9.47968C11.3053 9.75331 11.459 10.1244 11.459 10.5114Z" fill="white"/>
</svg>
