<svg width="14" height="18" viewBox="0 0 14 18" fill="none" xmlns="http://www.w3.org/2000/svg">
<path fill-rule="evenodd" clip-rule="evenodd" d="M7 0.666504C5.89493 0.666504 4.83513 1.10549 4.05372 1.88689C3.27232 2.66829 2.83334 3.7281 2.83334 4.83317C2.83334 5.93824 3.27232 6.99805 4.05372 7.77945C4.83513 8.56085 5.89493 8.99984 7 8.99984C8.10507 8.99984 9.16488 8.56085 9.94628 7.77945C10.7277 6.99805 11.1667 5.93824 11.1667 4.83317C11.1667 3.7281 10.7277 2.66829 9.94628 1.88689C9.16488 1.10549 8.10507 0.666504 7 0.666504ZM4.5 9.83317C3.11417 9.83317 1.78167 10.4648 1.00084 11.4165C0.605003 11.8998 0.325836 12.4973 0.301669 13.1598C0.276669 13.8365 0.520836 14.4965 1.025 15.0723C2.25167 16.4765 4.21084 17.3332 7 17.3332C9.78917 17.3332 11.7483 16.4765 12.975 15.0723C13.4792 14.4965 13.7233 13.8365 13.6983 13.1598C13.6733 12.4973 13.3958 11.8998 12.9983 11.4165C12.2192 10.4665 10.8867 9.83317 9.5 9.83317H4.5Z" fill="white"/>
</svg>
