<svg width="22" height="22" viewBox="0 0 22 22" fill="none" xmlns="http://www.w3.org/2000/svg">
<path d="M9.61612 1.82826L8.71938 3.63262C8.50146 4.07109 8.08023 4.37504 7.5929 4.44537L5.58781 4.7347C4.36065 4.91177 3.87065 6.4094 4.75861 7.26893L6.2095 8.67343C6.56217 9.01478 6.72306 9.50656 6.63984 9.98855L6.2973 11.9717C6.08768 13.1854 7.37052 14.111 8.46811 13.538L10.2615 12.6016C10.4764 12.4895 10.7153 12.4309 10.9577 12.4309C11.2002 12.4309 11.439 12.4895 11.654 12.6016L13.4473 13.538C14.5449 14.111 15.8278 13.1854 15.6182 11.9717L15.2756 9.98855C15.1924 9.50656 15.3533 9.01478 15.7059 8.67343L17.1568 7.26893C18.0448 6.4094 17.5548 4.91177 16.3277 4.7347L14.3226 4.44537C13.8352 4.37504 13.414 4.07109 13.1961 3.63262L12.2993 1.82826C11.7506 0.723975 10.1649 0.723975 9.61612 1.82826Z" stroke="white" stroke-width="2" stroke-miterlimit="10" stroke-linecap="round" stroke-linejoin="round"/>
<path d="M3.76901 14.5153C3.61532 14.6707 3.4151 14.7716 3.1988 14.8026L1.85782 14.9961C1.03706 15.1146 0.709391 16.1161 1.30329 16.691L2.27363 17.6303C2.38964 17.7424 2.4765 17.8811 2.52666 18.0344C2.57681 18.1877 2.58873 18.3509 2.56138 18.5099L2.33232 19.8361C2.1921 20.6479 3.05003 21.2669 3.7841 20.8836L4.98355 20.2575C5.12729 20.1825 5.28703 20.1433 5.44916 20.1433C5.61129 20.1433 5.77103 20.1825 5.91477 20.2575L7.11418 20.8836C7.84829 21.2669 8.70622 20.6479 8.566 19.8361L8.33694 18.5099C8.30957 18.3509 8.32148 18.1877 8.37163 18.0344C8.42179 17.8811 8.50866 17.7424 8.62469 17.6303L9.59503 16.691" stroke="white" stroke-width="2" stroke-miterlimit="10" stroke-linecap="round" stroke-linejoin="round"/>
<path d="M18.2308 14.5153C18.3845 14.6707 18.5847 14.7716 18.801 14.8026L20.142 14.9961C20.9628 15.1146 21.2904 16.1161 20.6965 16.691L19.7262 17.6303C19.6102 17.7424 19.5233 17.8811 19.4732 18.0344C19.423 18.1877 19.4111 18.3509 19.4384 18.5099L19.6675 19.8361C19.8077 20.6479 18.9498 21.2669 18.2157 20.8836L17.0163 20.2575C16.8725 20.1825 16.7128 20.1433 16.5507 20.1433C16.3885 20.1433 16.2288 20.1825 16.085 20.2575L14.8856 20.8836C14.1515 21.2669 13.2936 20.6479 13.4338 19.8361L13.6629 18.5099C13.6902 18.3509 13.6783 18.1877 13.6282 18.0344C13.578 17.8811 13.4912 17.7424 13.3751 17.6303L12.4048 16.691" stroke="white" stroke-width="2" stroke-miterlimit="10" stroke-linecap="round" stroke-linejoin="round"/>
</svg>
