<svg width="5" height="8" viewBox="0 0 5 8" fill="none" xmlns="http://www.w3.org/2000/svg">
<path d="M1.25573 7.98023C1.14949 7.98084 1.04548 7.94981 0.956957 7.89108C0.86843 7.83236 0.799397 7.7486 0.758659 7.65048C0.717922 7.55237 0.707326 7.44435 0.728222 7.34019C0.749118 7.23603 0.80056 7.14045 0.875988 7.06564L3.71066 4.23632L0.875988 1.407C0.775275 1.30629 0.718696 1.1697 0.718696 1.02727C0.718696 0.956742 0.732586 0.886908 0.759575 0.821753C0.786563 0.756597 0.82612 0.697395 0.875988 0.647527C0.925856 0.597659 0.985058 0.558102 1.05021 0.531114C1.11537 0.504125 1.1852 0.490234 1.25573 0.490234C1.39816 0.490234 1.53475 0.546814 1.63547 0.647527L4.84452 3.85659C4.94414 3.95679 5.00005 4.09235 5.00005 4.23365C5.00005 4.37495 4.94414 4.5105 4.84452 4.61071L1.63547 7.81977C1.58593 7.87031 1.52686 7.91051 1.46168 7.93805C1.39649 7.9656 1.32649 7.97993 1.25573 7.98023Z" fill="white"/>
</svg>
