<svg width="20" height="20" viewBox="0 0 20 20" fill="none" xmlns="http://www.w3.org/2000/svg">
<path d="M18.1962 9.927C18.3278 9.77309 18.3939 9.57544 18.3794 9.37036C18.3646 9.16528 18.2696 8.98208 18.1157 8.85044L16.6509 7.59067C16.204 7.20239 15.9329 6.66762 15.8892 6.07465L15.7427 4.14848C15.7278 3.95083 15.6329 3.7602 15.479 3.62856C15.3251 3.49692 15.1274 3.4309 14.9224 3.44536L13.0032 3.59184C12.4173 3.63559 11.8314 3.44536 11.3845 3.0645L9.92706 1.80473C9.60479 1.53364 9.1212 1.57036 8.85049 1.8852L7.59073 3.34262C7.20245 3.79692 6.66768 4.06762 6.07471 4.11176L4.14854 4.25825C3.73096 4.28755 3.41612 4.65395 3.44541 5.07856L3.5919 6.9977C3.63565 7.59106 3.44542 8.16958 3.05713 8.61645L1.80479 10.0739C1.67315 10.2278 1.60713 10.4254 1.62159 10.6305C1.63643 10.8356 1.73135 11.0188 1.88526 11.1504L3.3501 12.4102C3.79698 12.7985 4.06807 13.3332 4.11182 13.9262L4.25831 15.8524C4.27315 16.05 4.36807 16.2407 4.52198 16.3723C4.67588 16.504 4.87354 16.5629 5.07862 16.5555L6.99776 16.409C7.04893 16.4016 7.10752 16.4016 7.1587 16.4016C7.69346 16.4016 8.21338 16.5922 8.61612 16.9364L10.0735 18.1961C10.3958 18.4672 10.8794 18.4305 11.1501 18.1157L12.4099 16.6582C12.7982 16.204 13.3329 15.9332 13.9259 15.8891L15.8521 15.7426C16.2696 15.7133 16.5845 15.3469 16.5552 14.9223L16.4087 13.0032C16.3649 12.4098 16.5552 11.8313 16.9435 11.3844L18.1962 9.927ZM10.0001 14.3946C7.57588 14.3946 5.60557 12.4243 5.60557 10C5.60557 7.57583 7.57588 5.60551 10.0001 5.60551C12.4243 5.60551 14.3946 7.57583 14.3946 10C14.3946 12.4243 12.4243 14.3946 10.0001 14.3946ZM12.9298 10C12.9298 11.6188 11.6189 12.9297 10.0001 12.9297C8.38135 12.9297 7.07041 11.6188 7.07041 10C7.07041 8.3813 8.38135 7.07036 10.0001 7.07036C11.6189 7.07036 12.9298 8.3813 12.9298 10Z" fill="white"/>
</svg>
