<svg width="21" height="22" viewBox="0 0 21 22" fill="none" xmlns="http://www.w3.org/2000/svg">
<path d="M19.6439 4.38983C19.6439 6.26199 18.1263 7.77966 16.2541 7.77966C14.3819 7.77966 12.8643 6.26199 12.8643 4.38983C12.8643 2.51767 14.3819 1 16.2541 1C18.1263 1 19.6439 2.51767 19.6439 4.38983Z" stroke="white" stroke-width="2" stroke-miterlimit="10" stroke-linecap="round" stroke-linejoin="round"/>
<path d="M7.77966 10.9999C7.77966 12.8721 6.26199 14.3898 4.38983 14.3898C2.51767 14.3898 1 12.8721 1 10.9999C1 9.12778 2.51767 7.61011 4.38983 7.61011C6.26199 7.61011 7.77966 9.12778 7.77966 10.9999Z" stroke="white" stroke-width="2" stroke-miterlimit="10" stroke-linecap="round" stroke-linejoin="round"/>
<path d="M19.6439 17.6102C19.6439 19.4823 18.1263 21 16.2541 21C14.3819 21 12.8643 19.4823 12.8643 17.6102C12.8643 15.738 14.3819 14.2203 16.2541 14.2203C18.1263 14.2203 19.6439 15.738 19.6439 17.6102Z" stroke="white" stroke-width="2" stroke-miterlimit="10" stroke-linecap="round" stroke-linejoin="round"/>
<path d="M10.369 7.58334L7.3335 9.31787" stroke="white" stroke-width="2" stroke-miterlimit="10" stroke-linecap="round" stroke-linejoin="round"/>
<path d="M7.3335 12.6821L10.369 14.4166" stroke="white" stroke-width="2" stroke-miterlimit="10" stroke-linecap="round" stroke-linejoin="round"/>
</svg>
