<svg width="22" height="22" viewBox="0 0 22 22" fill="none" xmlns="http://www.w3.org/2000/svg">
<path d="M5.23729 21C2.89708 21 1 19.1029 1 16.7627V9.81356C1 7.47335 2.89708 5.57627 5.23729 5.57627H16.7627C19.1029 5.57627 21 7.47335 21 9.81356V16.7627C21 19.1029 19.1029 21 16.7627 21H5.23729Z" stroke="white" stroke-width="2" stroke-miterlimit="10" stroke-linecap="round" stroke-linejoin="round"/>
<path d="M7.86444 2.69495C7.86444 1.75884 7.10563 1.00003 6.16952 1.00003C5.23342 1.00003 4.47461 1.75884 4.47461 2.69495" stroke="white" stroke-width="2" stroke-miterlimit="10" stroke-linecap="round" stroke-linejoin="round"/>
<path d="M17.61 2.69495C17.61 1.75884 16.8512 1.00003 15.9151 1.00003C14.979 1.00003 14.2202 1.75884 14.2202 2.69495" stroke="white" stroke-width="2" stroke-miterlimit="10" stroke-linecap="round" stroke-linejoin="round"/>
<path d="M11.0425 13.4153V9.94071" stroke="white" stroke-width="2" stroke-miterlimit="10" stroke-linecap="round" stroke-linejoin="round"/>
<path d="M10 16.9985H12" stroke="white" stroke-width="2" stroke-miterlimit="10" stroke-linecap="round" stroke-linejoin="round"/>
</svg>
