<svg width="24" height="24" viewBox="0 0 24 24" fill="none" xmlns="http://www.w3.org/2000/svg">
<path d="M0.415527 23.584L2.05227 17.6348C1.04251 15.8936 0.511694 13.9183 0.512302 11.8951C0.514961 5.56505 5.68985 0.415039 12.0484 0.415039C15.1343 0.416552 18.031 1.61206 20.2085 3.78203C22.3868 5.95238 23.5856 8.83661 23.5844 11.9043C23.5818 18.2344 18.4063 23.385 12.0487 23.385C12.0484 23.385 12.049 23.385 12.0487 23.385H12.0436C10.1131 23.3844 8.21618 22.902 6.53104 21.9877L0.415527 23.584Z" fill="url(#paint0_linear_1086_537)"/>
<path fill-rule="evenodd" clip-rule="evenodd" d="M20.5033 3.48784C18.247 1.24013 15.2469 0.00151244 12.0503 0C5.46354 0 0.103232 5.3346 0.100573 11.8919C0.0996615 13.9881 0.649776 16.034 1.69546 17.8373L0 24L6.33474 22.3463C8.08034 23.294 10.0453 23.7932 12.0452 23.7941H12.0502C18.6361 23.7941 23.9973 18.4583 24 11.9013C24.0011 8.72368 22.7594 5.73585 20.5033 3.48784ZM12.0503 21.7856H12.0464C10.264 21.7845 8.51598 21.308 6.99143 20.4074L6.62849 20.1932L2.8693 21.1745L3.87275 17.5269L3.63636 17.153C2.64202 15.579 2.11713 13.7603 2.11796 11.8928C2.12009 6.44269 6.57539 2.00875 12.0541 2.00875C14.7072 2.00965 17.2005 3.0394 19.0761 4.90749C20.9514 6.77588 21.9831 9.25931 21.9825 11.9007C21.9802 17.3508 17.5246 21.7856 12.0502 21.7856H12.0503Z" fill="white"/>
<path fill-rule="evenodd" clip-rule="evenodd" d="M17.4978 14.382C17.1993 14.2334 15.7314 13.5141 15.4575 13.4148C15.184 13.3159 14.9849 13.2663 14.7858 13.564C14.5867 13.8612 14.0145 14.5306 13.8403 14.7288C13.6662 14.9273 13.4921 14.9521 13.1935 14.8035C12.895 14.6543 11.9333 14.3409 10.7924 13.3283C9.90492 12.5405 9.30551 11.5674 9.13133 11.27C8.95715 10.9725 9.11264 10.8115 9.26251 10.6632C9.39636 10.5303 9.56104 10.3164 9.71023 10.1427C9.85919 9.9693 9.9091 9.84528 10.0088 9.64708C10.1082 9.44857 10.0583 9.27517 9.98385 9.12657C9.9091 8.97767 9.32898 7.50781 9.06342 6.91992C8.83964 6.42513 8.60408 6.41507 8.39131 6.40652C8.21744 6.39911 8.01804 6.39942 7.81924 6.39942C7.62015 6.39942 7.29663 6.4739 7.02317 6.77132C6.74925 7.06882 5.97778 7.78784 5.97778 9.25036C5.97778 10.7129 7.04808 12.126 7.19697 12.3245C7.34661 12.5228 9.26282 15.6197 12.2977 16.8114C14.8199 17.8015 15.3331 17.6045 15.8807 17.5549C16.4281 17.5053 17.6471 16.8362 17.896 16.1419C18.1447 15.4481 18.1447 14.8531 18.0702 14.7288C17.9954 14.605 17.7963 14.5306 17.4978 14.382Z" fill="white"/>
<defs>
<linearGradient id="paint0_linear_1086_537" x1="11.9999" y1="23.5841" x2="11.9999" y2="0.415039" gradientUnits="userSpaceOnUse">
<stop stop-color="#20B038"/>
<stop offset="1" stop-color="#60D66A"/>
</linearGradient>
</defs>
</svg>
