<svg width="28" height="28" viewBox="0 0 28 28" fill="none" xmlns="http://www.w3.org/2000/svg">
<path d="M1.53541 14.3272C0.923082 14.1803 0.616916 14.1069 0.617199 14.0018C0.617483 13.8966 0.924051 13.8248 1.53719 13.6813C3.76498 13.1596 7.85406 11.9662 9.95931 9.87257C12.0781 7.76546 13.2884 3.65162 13.8181 1.40796C13.964 0.789944 14.0369 0.480936 14.1421 0.480936C14.2474 0.480935 14.3203 0.789944 14.4662 1.40796C14.9959 3.65161 16.2062 7.76546 18.325 9.87257C20.4302 11.9662 24.5193 13.1596 26.7471 13.6813C27.3602 13.8248 27.6668 13.8966 27.6671 14.0018C27.6674 14.1069 27.3612 14.1803 26.7489 14.3272C24.521 14.8615 20.4293 16.0785 18.325 18.1828C16.2125 20.2953 14.9943 24.4107 14.4631 26.6326C14.3191 27.2352 14.2471 27.5366 14.1421 27.5366C14.0372 27.5366 13.9652 27.2352 13.8211 26.6326C13.29 24.4107 12.0718 20.2953 9.95931 18.1828C7.855 16.0785 3.76325 14.8615 1.53541 14.3272Z" fill="white"/>
</svg>
